<svg xmlns="http://www.w3.org/2000/svg" viewBox="0 0 612.582 767.58"><defs><style>.cls-1{fill:#0092cd;}.cls-2{fill:#88d0ec;}.cls-3{fill:#143f7c;}</style></defs><title>Zasób 1</title><g id="Warstwa_2" data-name="Warstwa 2"><g id="Warstwa_1-2" data-name="Warstwa 1"><path class="cls-1" d="M306.5,244.537s6.8,14-3.1,23.2-47.8,40.5-10.7,95.9,34.3,63,33.8,79.6c-.5,16.7-15.5,76.9-49.6,94-34.2,17.1-25,11-38.2,17.3s-43.6,34.5-21.5,64.4c22.2,30,66.1,44.5,98.6,38.8,32.5-5.8,47.7-25,56-48.5,8.3-23.4,58.6-104.1,75.7-118.3s39.8-41.9,45.2-65.8c5.3-23.9,9.4-39.8,19.6-43.5,10.1-3.7,40.3-10.2,41.7-26.2s-16.3-25.1-22.1-21.3-26.2,41-46.7,25c-20.6-15.9,23.9-31,23.9-31s33.8-19.8,23.3-37.6c-10.4-17.7-28.7-15.8-34.2-7-5.5,8.9-22,53.2-36.1,40.5-14.2-12.6,15.5-37.1,15.5-37.1s28.8-19.7,21.6-40.7-30.6-14.6-34.7-.7-29.4,48.7-33.5,44.3-.9-22.3,8.1-29.8,23.5-35.1,15.3-46.3-24.8-18.2-38.1-6.8-8.7,79-30.3,72.4-22.8-24.1-14.8-35.7c8.1-11.5,32.9-32.8,31.2-50.2-1.8-17.3-7.4-52.4-61-42.4s-44.4,62.5-44.4,62.5A298.336,298.336,0,0,0,306.5,244.537Z"/><path class="cls-2" d="M268.2,103.937s-9.3,12.5-1.2,23.4,39.5,48.6-7.2,96.2-45.3,55.6-47.9,72c-2.6,16.5,1,78.5,31.4,101.5,30.4,23.1,22.5,15.4,34.3,24s36.5,41.9,9.2,67.3-73.2,31.5-104.1,19.9c-30.9-11.7-42.3-33.4-46.1-58s-38.3-113.1-52.5-130.2-31.4-48.6-32.2-73-1.9-40.8-11.2-46.3c-9.2-5.5-37.7-17.5-36.2-33.4,1.5-16,20.7-21.7,25.6-16.8,5,4.8,18.1,45.1,41.3,33.2s-17.7-34.9-17.7-34.9-29.5-25.7-16-41.2,31.1-10.3,34.9-.5c3.8,9.7,11.8,56.3,28,46.5s-8.4-39.3-8.4-39.3-24.7-24.7-13.8-44,32.8-8.7,34.3,5.7,19.9,53.3,24.7,49.8c4.9-3.5,5-21.7-2.4-30.8s-16.6-38.8-6.5-48.4c10.1-9.5,27.7-13.3,38.7.3s-6.1,79.3,16.4,76.8c22.4-2.5,26.9-19.5,21.1-32.3s-26.3-38.4-21.4-55c4.9-16.7,16.9-50.1,67.8-30.4s32.1,69.6,32.1,69.6S276.7,89.737,268.2,103.937Z"/><path class="cls-3" d="M0,745.537s29.3-179.4,160.4-198.3c0,0,53.3-12.1,106.3,16.4,0,0,113.6,57.6,134.4,56.7,0,0,49.6,3.2,71.6-2.9,0,0,52.1-13.2,58.9,20.9,0,0,4.3,22.7-60.2,42.2,0,0-68.5,8.8-116.6,4.6-48-4.2-55.9-2-91.5,10.5,0,0,45.4-9.2,93.4,1.2,0,0,69.6,11.3,102.4-.2,0,0,81.4-16.2,83.6-59.1,0,0-3.2-22.1-18.9-23.8,0,0,18.9-27.8,22.6-42.9,0,0,14.2-77.3,49.8-81.6,0,0,20.6-3.7,15.6,30.7,0,0-15.6,81.3-63.2,141.8,0,0-55,69.3-126.7,87.1,0,0-82.2,42.7-201.1-.8C102.1,704.637,69.8,717.437,0,745.537Z"/><path class="cls-3" d="M507.8,608.337s3.4-12.6,11.1-20,17.5-28.2,19-37.1,14.5-51.5,23.8-52.2c0,0,3.2,3.4-.5,7.6s-7.7,11.6-10.4,22.8a132.541,132.541,0,0,1-7.1,20.8c-.9,2.5-9.8,27.1-15.5,37.6S513.5,609.537,507.8,608.337Z"/><path class="cls-3" d="M480.6,602.937a2.009,2.009,0,0,1,.3-2.2,7.933,7.933,0,0,1,3.3-2.3,26.163,26.163,0,0,1,3-1c8.6-2.3,31.9-37.4,33.1-44.3s7.2-26.2,10.2-25.9,2.8,5.1,2.8,5.1-8.2,18.3-6.7,23.9c0,0-1.5,11.8-16.7,30.9,0,0-11.5,14.4-21.3,17.6s-8.7-1.9-8.7-1.9l-.2-1"/><path class="cls-3" d="M443,607.037a32.917,32.917,0,0,1,11.9-4.9c6.5-1.1,10.2-8.4,10.2-8.4s6-5.9,7.7,2.6c0,0-.7,8.2-11.6,13-10.8,4.8-16.6,2.2-17.2,1.2S442.2,609.237,443,607.037Z"/></g></g></svg>